<svg width="153" height="54" viewBox="0 0 153 54" fill="none" xmlns="http://www.w3.org/2000/svg">
<path d="M44.89 52H32.29V38.7C32.3378 37.6747 32.0148 36.6665 31.38 35.86C30.9931 35.4653 30.5231 35.1618 30.0041 34.9715C29.4852 34.7812 28.9304 34.709 28.38 34.76H12.6V52H0V1H30.18C32.5327 0.954849 34.8751 1.3238 37.1 2.09C38.9564 2.73309 40.659 3.75466 42.1 5.09C43.4164 6.36162 44.4578 7.88979 45.16 9.57999C45.8664 11.313 46.2232 13.1686 46.21 15.04V18.79C46.2162 20.8616 45.6373 22.8929 44.54 24.65C43.3095 26.564 41.4974 28.0327 39.37 28.84V30.15C40.9211 30.2505 42.3705 30.9571 43.4052 32.1171C44.4398 33.2771 44.9768 34.7975 44.9 36.35L44.89 52ZM12.6 23.56H26.46C28.3764 23.7009 30.2756 23.1154 31.78 21.92C32.4025 21.3297 32.8881 20.6101 33.2026 19.8119C33.517 19.0137 33.6527 18.1563 33.6 17.3C33.6102 16.4801 33.4542 15.6666 33.1414 14.9087C32.8286 14.1507 32.3655 13.464 31.78 12.89C31.0672 12.2332 30.2274 11.7294 29.3124 11.4095C28.3975 11.0897 27.4267 10.9605 26.46 11.03H12.6V23.56Z" fill="black"/>
<path d="M85.01 2.39999H97.61V52H85.01V44.8H83.21C81.01 50.5333 76.2766 53.4 69.01 53.4C66.6563 53.4203 64.3185 53.0138 62.11 52.2C59.9855 51.4099 58.07 50.1443 56.51 48.5C54.8261 46.7098 53.5471 44.5782 52.76 42.25C51.8008 39.4002 51.3407 36.4063 51.4 33.4V2.39999H64.01V30.8C64.01 34.3267 64.8433 37.0767 66.51 39.05C68.1766 41.0233 70.6766 42.0067 74.01 42C77.81 42 80.5933 40.7833 82.36 38.35C84.1266 35.9167 85.01 32.5833 85.01 28.35V2.39999ZM67.61 2.79999H81.46L79.66 16.4H69.4L67.61 2.79999Z" fill="black"/>
<path d="M138.71 44.8C137.662 47.5936 135.685 49.9417 133.11 51.45C130.518 52.7958 127.629 53.4664 124.71 53.4C121.807 53.4182 118.93 52.8396 116.26 51.7C113.608 50.5574 111.236 48.8512 109.31 46.7C107.226 44.364 105.614 41.6476 104.56 38.7C103.341 35.2668 102.748 31.6427 102.81 28V26.4C102.753 22.7945 103.328 19.2069 104.51 15.8C105.524 12.8664 107.085 10.1518 109.11 7.79999C110.972 5.65234 113.274 3.9301 115.86 2.75001C118.451 1.57524 121.266 0.978099 124.11 1.00001C127.066 0.872653 130.006 1.49167 132.66 2.79999C134.909 4.09551 136.707 6.05019 137.81 8.4H139.61V2.4H152.21V37C152.21 41.9669 152.21 44 152.21 52H148.21C146.17 52.0824 144.179 51.3648 142.66 50C141.949 49.3389 141.388 48.5321 141.017 47.6347C140.646 46.7373 140.473 45.7704 140.51 44.8H138.71ZM127.51 41.4C129.154 41.4684 130.793 41.1772 132.313 40.5468C133.833 39.9164 135.197 38.9619 136.31 37.75C138.51 35.3167 139.61 32 139.61 27.8V26.56C139.61 22.36 138.51 19.0267 136.31 16.56C135.155 15.4026 133.784 14.4843 132.274 13.8577C130.764 13.2312 129.145 12.9087 127.51 12.9087C125.875 12.9087 124.256 13.2312 122.746 13.8577C121.236 14.4843 119.865 15.4026 118.71 16.56C116.51 18.9933 115.41 22.3267 115.41 26.56V27.76C115.41 31.96 116.51 35.2767 118.71 37.71C119.818 38.9302 121.181 39.8929 122.701 40.5304C124.221 41.1679 125.863 41.4647 127.51 41.4Z" fill="black"/>
</svg>
