<svg width="100%" height="100%" viewBox="0 0 192 67" fill="black" xmlns="http://www.w3.org/2000/svg">
<path d="M56.6249 64.3528H40.7311V47.5759C40.7914 46.2827 40.384 45.0109 39.5832 43.9935C39.0951 43.4956 38.5022 43.1128 37.8476 42.8727C37.193 42.6327 36.4932 42.5416 35.799 42.606H15.8938V64.3528H0V0.0205916H38.0695C41.0373 -0.0363658 43.9919 0.429032 46.7985 1.39553C49.1402 2.20674 51.2878 3.49535 53.1056 5.17977C54.766 6.78382 56.0798 8.71147 56.9655 10.8435C57.8565 13.0296 58.3066 15.3702 58.29 17.7309V22.4612C58.2978 25.0743 57.5676 27.6366 56.1834 29.853C54.6313 32.2674 52.3454 34.12 49.6619 35.1384V36.7908C51.6185 36.9176 53.4468 37.8089 54.7519 39.2721C56.0571 40.7354 56.7344 42.6533 56.6375 44.6116L56.6249 64.3528ZM15.8938 28.4781H33.377C35.7944 28.6558 38.1901 27.9173 40.0878 26.4094C40.873 25.6648 41.4856 24.7571 41.8822 23.7502C42.2789 22.7434 42.45 21.6618 42.3835 20.5816V20.5816C42.3964 19.5474 42.1997 18.5213 41.8051 17.5652C41.4105 16.6091 40.8263 15.7429 40.0878 15.0188C39.1886 14.1904 38.1293 13.5549 36.9751 13.1513C35.821 12.7478 34.5965 12.5849 33.377 12.6726H15.8938V28.4781Z" fill="black"/>
<path d="M107.233 1.78656H123.127V64.3528H107.233V55.2705H104.962C102.187 62.5027 96.2165 66.1187 87.0502 66.1187C84.0813 66.1444 81.1323 65.6316 78.3464 64.6051C75.6667 63.6084 73.2504 62.0119 71.2825 59.9378C69.1584 57.6796 67.5451 54.9908 66.5522 52.054C65.3423 48.4592 64.762 44.6826 64.8367 40.8904V1.78656H80.7431V37.6107C80.7431 42.0593 81.7943 45.5282 83.8967 48.0174C85.999 50.5066 89.1525 51.747 93.3573 51.7386C98.1506 51.7386 101.662 50.2039 103.89 47.1344C106.119 44.065 107.233 39.8603 107.233 34.5203V1.78656ZM85.2842 2.29112H102.755L100.484 19.4464H87.5422L85.2842 2.29112Z" fill="black"/>
<path d="M174.971 55.2706C173.649 58.7945 171.155 61.7564 167.907 63.659C164.638 65.3566 160.994 66.2025 157.311 66.1187C153.649 66.1417 150.021 65.4119 146.652 63.9744C143.307 62.533 140.315 60.3808 137.885 57.6673C135.257 54.7206 133.223 51.2941 131.894 47.576C130.356 43.2453 129.608 38.6737 129.686 34.0788V32.0605C129.614 27.5125 130.34 22.987 131.83 18.6895C133.109 14.9891 135.078 11.5648 137.633 8.59821C139.982 5.88912 142.886 3.71667 146.148 2.22808C149.415 0.746211 152.966 -0.00703138 156.554 0.020603C160.283 -0.140042 163.992 0.640799 167.339 2.29113C170.177 3.92532 172.444 6.39098 173.836 9.35507H176.106V1.78658H192V45.4315C192 51.6969 192 54.2614 192 64.3528H186.954C184.381 64.4567 181.869 63.5515 179.954 61.8299C179.056 60.996 178.349 59.9783 177.881 58.8463C177.413 57.7143 177.195 56.4946 177.241 55.2706H174.971ZM160.843 50.9818C162.917 51.068 164.984 50.7007 166.902 49.9055C168.819 49.1103 170.54 47.9063 171.944 46.3776C174.719 43.3082 176.106 39.1245 176.106 33.8265V32.2624C176.106 26.9644 174.719 22.7597 171.944 19.6482C170.487 18.1882 168.757 17.0299 166.852 16.2395C164.947 15.4492 162.905 15.0424 160.843 15.0424C158.781 15.0424 156.739 15.4492 154.834 16.2395C152.929 17.0299 151.199 18.1882 149.743 19.6482C146.967 22.7177 145.58 26.9224 145.58 32.2624V33.7761C145.58 39.074 146.967 43.2577 149.743 46.3271C151.141 47.8664 152.859 49.0807 154.777 49.8848C156.695 50.689 158.765 51.0634 160.843 50.9818Z" fill="black"/>
</svg>
