<svg width="1200" height="628" viewBox="0 0 1200 628" fill="none" xmlns="http://www.w3.org/2000/svg">
<rect width="1200" height="628" fill="#313745"/>
<path d="M124.032 469.4H145.344V473.144H136.704V499.256H145.344V503H124.032V499.256H132.672V473.144H124.032V469.4ZM157.311 503H153.567V479.192H157.311V483.224H157.887C159.359 480.088 161.919 478.52 165.567 478.52C168.319 478.52 170.511 479.384 172.143 481.112C173.775 482.808 174.591 485.368 174.591 488.792V503H170.847V489.56C170.847 487.064 170.287 485.192 169.167 483.944C168.047 482.696 166.527 482.072 164.607 482.072C162.335 482.072 160.543 482.856 159.231 484.424C157.951 485.96 157.311 488.024 157.311 490.616V503ZM201.053 499.352H200.477C199.709 500.792 198.653 501.88 197.309 502.616C195.997 503.32 194.557 503.672 192.989 503.672C191.389 503.672 189.885 503.4 188.477 502.856C187.069 502.312 185.821 501.528 184.733 500.504C183.677 499.48 182.829 498.216 182.189 496.712C181.581 495.176 181.277 493.432 181.277 491.48V490.712C181.277 488.792 181.597 487.08 182.237 485.576C182.877 484.04 183.725 482.76 184.781 481.736C185.837 480.68 187.069 479.88 188.477 479.336C189.885 478.792 191.357 478.52 192.893 478.52C194.621 478.52 196.125 478.904 197.405 479.672C198.717 480.408 199.741 481.496 200.477 482.936H201.053V479.192H204.797V508.856C204.797 509.944 204.445 510.84 203.741 511.544C203.069 512.248 202.189 512.6 201.101 512.6H185.597V509.144H199.757C200.621 509.144 201.053 508.664 201.053 507.704V499.352ZM193.085 500.12C194.205 500.12 195.245 499.912 196.205 499.496C197.165 499.08 197.997 498.488 198.701 497.72C199.437 496.952 200.013 496.04 200.429 494.984C200.845 493.896 201.053 492.696 201.053 491.384V490.808C201.053 489.528 200.845 488.36 200.429 487.304C200.013 486.216 199.437 485.288 198.701 484.52C197.997 483.752 197.149 483.16 196.157 482.744C195.197 482.296 194.173 482.072 193.085 482.072C191.965 482.072 190.909 482.28 189.917 482.696C188.957 483.112 188.109 483.704 187.373 484.472C186.669 485.24 186.109 486.152 185.693 487.208C185.309 488.264 185.117 489.432 185.117 490.712V491.48C185.117 492.824 185.309 494.024 185.693 495.08C186.109 496.136 186.669 497.048 187.373 497.816C188.109 498.552 188.957 499.128 189.917 499.544C190.877 499.928 191.933 500.12 193.085 500.12ZM215.084 492.248C215.18 494.616 215.916 496.52 217.292 497.96C218.668 499.4 220.588 500.12 223.052 500.12C224.172 500.12 225.148 499.992 225.98 499.736C226.812 499.48 227.516 499.128 228.092 498.68C228.7 498.232 229.18 497.72 229.532 497.144C229.916 496.536 230.22 495.896 230.444 495.224L233.996 496.184C233.324 498.392 232.076 500.2 230.252 501.608C228.46 502.984 226.028 503.672 222.956 503.672C221.26 503.672 219.692 503.384 218.252 502.808C216.844 502.2 215.628 501.352 214.604 500.264C213.58 499.176 212.78 497.88 212.204 496.376C211.628 494.872 211.34 493.208 211.34 491.384V490.232C211.34 488.568 211.628 487.016 212.204 485.576C212.812 484.136 213.644 482.904 214.7 481.88C215.756 480.824 216.988 480.008 218.396 479.432C219.836 478.824 221.388 478.52 223.052 478.52C225.004 478.52 226.684 478.888 228.092 479.624C229.532 480.328 230.7 481.208 231.596 482.264C232.524 483.32 233.196 484.472 233.612 485.72C234.06 486.968 234.284 488.12 234.284 489.176V492.248H215.084ZM223.052 482.072C221.996 482.072 221.004 482.248 220.076 482.6C219.18 482.92 218.38 483.384 217.676 483.992C217.004 484.6 216.444 485.32 215.996 486.152C215.58 486.952 215.308 487.832 215.18 488.792H230.54C230.476 487.768 230.22 486.84 229.772 486.008C229.356 485.176 228.796 484.472 228.092 483.896C227.42 483.32 226.636 482.872 225.74 482.552C224.876 482.232 223.98 482.072 223.052 482.072ZM245.483 503H241.739V479.192H245.483V483.224H246.059C247.531 480.088 250.091 478.52 253.739 478.52C256.491 478.52 258.683 479.384 260.315 481.112C261.947 482.808 262.763 485.368 262.763 488.792V503H259.019V489.56C259.019 487.064 258.459 485.192 257.339 483.944C256.219 482.696 254.699 482.072 252.779 482.072C250.507 482.072 248.715 482.856 247.403 484.424C246.123 485.96 245.483 488.024 245.483 490.616V503ZM278.521 472.088C278.521 471.16 278.841 470.376 279.481 469.736C280.153 469.064 280.953 468.728 281.881 468.728C282.809 468.728 283.593 469.064 284.233 469.736C284.905 470.376 285.241 471.16 285.241 472.088C285.241 473.016 284.905 473.816 284.233 474.488C283.593 475.128 282.809 475.448 281.881 475.448C280.953 475.448 280.153 475.128 279.481 474.488C278.841 473.816 278.521 473.016 278.521 472.088ZM271.705 499.544H280.057V482.648H272.569V479.192H283.801V499.544H291.577V503H271.705V499.544ZM303.256 492.248C303.352 494.616 304.088 496.52 305.464 497.96C306.84 499.4 308.76 500.12 311.224 500.12C312.344 500.12 313.32 499.992 314.152 499.736C314.984 499.48 315.688 499.128 316.264 498.68C316.872 498.232 317.352 497.72 317.704 497.144C318.088 496.536 318.392 495.896 318.616 495.224L322.168 496.184C321.496 498.392 320.248 500.2 318.424 501.608C316.632 502.984 314.2 503.672 311.128 503.672C309.432 503.672 307.864 503.384 306.424 502.808C305.016 502.2 303.8 501.352 302.776 500.264C301.752 499.176 300.952 497.88 300.376 496.376C299.8 494.872 299.512 493.208 299.512 491.384V490.232C299.512 488.568 299.8 487.016 300.376 485.576C300.984 484.136 301.816 482.904 302.872 481.88C303.928 480.824 305.16 480.008 306.568 479.432C308.008 478.824 309.56 478.52 311.224 478.52C313.176 478.52 314.856 478.888 316.264 479.624C317.704 480.328 318.872 481.208 319.768 482.264C320.696 483.32 321.368 484.472 321.784 485.72C322.232 486.968 322.456 488.12 322.456 489.176V492.248H303.256ZM311.224 482.072C310.168 482.072 309.176 482.248 308.248 482.6C307.352 482.92 306.552 483.384 305.848 483.992C305.176 484.6 304.616 485.32 304.168 486.152C303.752 486.952 303.48 487.832 303.352 488.792H318.712C318.648 487.768 318.392 486.84 317.944 486.008C317.528 485.176 316.968 484.472 316.264 483.896C315.592 483.32 314.808 482.872 313.912 482.552C313.048 482.232 312.152 482.072 311.224 482.072ZM328.566 479.192H337.206V482.36H337.782C338.39 481.048 339.254 480.088 340.374 479.48C341.494 478.84 342.774 478.52 344.214 478.52C346.614 478.52 348.55 479.304 350.022 480.872C351.494 482.44 352.278 484.728 352.374 487.736L348.438 488.312C348.438 486.104 347.91 484.52 346.854 483.56C345.798 482.568 344.502 482.072 342.966 482.072C341.974 482.072 341.11 482.264 340.374 482.648C339.67 483.032 339.078 483.56 338.598 484.232C338.118 484.904 337.766 485.688 337.542 486.584C337.318 487.48 337.206 488.44 337.206 489.464V499.544H343.254V503H327.99V499.544H333.462V482.648H328.566V479.192ZM381.765 491.384C381.765 493.368 381.429 495.128 380.757 496.664C380.117 498.168 379.253 499.448 378.165 500.504C377.077 501.528 375.797 502.312 374.325 502.856C372.885 503.4 371.381 503.672 369.813 503.672C368.213 503.672 366.693 503.4 365.253 502.856C363.813 502.312 362.549 501.528 361.461 500.504C360.373 499.448 359.493 498.168 358.821 496.664C358.181 495.128 357.861 493.368 357.861 491.384V490.808C357.861 488.856 358.181 487.128 358.821 485.624C359.493 484.088 360.373 482.792 361.461 481.736C362.581 480.68 363.861 479.88 365.301 479.336C366.741 478.792 368.245 478.52 369.813 478.52C371.381 478.52 372.885 478.792 374.325 479.336C375.765 479.88 377.029 480.68 378.117 481.736C379.237 482.792 380.117 484.088 380.757 485.624C381.429 487.128 381.765 488.856 381.765 490.808V491.384ZM369.813 500.12C370.965 500.12 372.021 499.928 372.981 499.544C373.973 499.128 374.837 498.536 375.573 497.768C376.309 497 376.885 496.088 377.301 495.032C377.717 493.944 377.925 492.728 377.925 491.384V490.808C377.925 489.528 377.717 488.36 377.301 487.304C376.885 486.216 376.309 485.288 375.573 484.52C374.837 483.752 373.973 483.16 372.981 482.744C371.989 482.296 370.933 482.072 369.813 482.072C368.693 482.072 367.637 482.296 366.645 482.744C365.653 483.16 364.789 483.752 364.053 484.52C363.317 485.288 362.741 486.216 362.325 487.304C361.909 488.36 361.701 489.528 361.701 490.808V491.384C361.701 492.728 361.909 493.944 362.325 495.032C362.741 496.088 363.317 497 364.053 497.768C364.789 498.536 365.637 499.128 366.597 499.544C367.589 499.928 368.661 500.12 369.813 500.12ZM436.514 479.096C436.514 478.008 436.29 477.048 435.842 476.216C435.426 475.384 434.85 474.696 434.114 474.152C433.378 473.608 432.53 473.192 431.57 472.904C430.61 472.616 429.602 472.472 428.546 472.472C427.618 472.472 426.738 472.6 425.906 472.856C425.074 473.08 424.322 473.416 423.65 473.864C423.01 474.312 422.498 474.872 422.114 475.544C421.73 476.184 421.538 476.936 421.538 477.8V478.088C421.538 479.016 421.73 479.816 422.114 480.488C422.498 481.128 423.058 481.688 423.794 482.168C424.562 482.616 425.506 483 426.626 483.32C427.746 483.608 429.058 483.864 430.562 484.088C434.082 484.632 436.674 485.672 438.338 487.208C440.002 488.712 440.834 490.744 440.834 493.304V493.88C440.834 495.32 440.578 496.648 440.066 497.864C439.586 499.048 438.85 500.072 437.858 500.936C436.898 501.8 435.698 502.472 434.258 502.952C432.818 503.432 431.154 503.672 429.266 503.672C427.122 503.672 425.218 503.368 423.554 502.76C421.922 502.12 420.546 501.256 419.426 500.168C418.338 499.048 417.506 497.752 416.93 496.28C416.354 494.776 416.066 493.144 416.066 491.384V489.944H420.098V491.096C420.098 494.04 420.898 496.248 422.498 497.72C424.13 499.192 426.386 499.928 429.266 499.928C431.762 499.928 433.634 499.384 434.882 498.296C436.162 497.176 436.802 495.704 436.802 493.88V493.592C436.802 491.832 436.146 490.488 434.834 489.56C433.554 488.632 431.458 487.96 428.546 487.544C426.85 487.32 425.314 486.984 423.938 486.536C422.594 486.056 421.442 485.448 420.482 484.712C419.522 483.944 418.786 483.032 418.274 481.976C417.762 480.92 417.506 479.672 417.506 478.232V477.656C417.506 476.344 417.778 475.144 418.322 474.056C418.866 472.968 419.618 472.024 420.578 471.224C421.57 470.424 422.738 469.816 424.082 469.4C425.458 468.952 426.962 468.728 428.594 468.728C430.482 468.728 432.162 469 433.634 469.544C435.138 470.088 436.402 470.824 437.426 471.752C438.45 472.648 439.218 473.72 439.73 474.968C440.274 476.184 440.546 477.464 440.546 478.808V480.824H436.514V479.096ZM469.937 491.384C469.937 493.368 469.601 495.128 468.929 496.664C468.289 498.168 467.425 499.448 466.337 500.504C465.249 501.528 463.969 502.312 462.497 502.856C461.057 503.4 459.553 503.672 457.985 503.672C456.385 503.672 454.865 503.4 453.425 502.856C451.985 502.312 450.721 501.528 449.633 500.504C448.545 499.448 447.665 498.168 446.993 496.664C446.353 495.128 446.033 493.368 446.033 491.384V490.808C446.033 488.856 446.353 487.128 446.993 485.624C447.665 484.088 448.545 482.792 449.633 481.736C450.753 480.68 452.033 479.88 453.473 479.336C454.913 478.792 456.417 478.52 457.985 478.52C459.553 478.52 461.057 478.792 462.497 479.336C463.937 479.88 465.201 480.68 466.289 481.736C467.409 482.792 468.289 484.088 468.929 485.624C469.601 487.128 469.937 488.856 469.937 490.808V491.384ZM457.985 500.12C459.137 500.12 460.193 499.928 461.153 499.544C462.145 499.128 463.009 498.536 463.745 497.768C464.481 497 465.057 496.088 465.473 495.032C465.889 493.944 466.097 492.728 466.097 491.384V490.808C466.097 489.528 465.889 488.36 465.473 487.304C465.057 486.216 464.481 485.288 463.745 484.52C463.009 483.752 462.145 483.16 461.153 482.744C460.161 482.296 459.105 482.072 457.985 482.072C456.865 482.072 455.809 482.296 454.817 482.744C453.825 483.16 452.961 483.752 452.225 484.52C451.489 485.288 450.913 486.216 450.497 487.304C450.081 488.36 449.873 489.528 449.873 490.808V491.384C449.873 492.728 450.081 493.944 450.497 495.032C450.913 496.088 451.489 497 452.225 497.768C452.961 498.536 453.809 499.128 454.769 499.544C455.761 499.928 456.833 500.12 457.985 500.12ZM476.624 479.192H483.968V473.144C483.968 472.056 484.304 471.16 484.976 470.456C485.68 469.752 486.576 469.4 487.664 469.4H497.072V472.856H489.008C488.144 472.856 487.712 473.336 487.712 474.296V479.192H497.648V482.648H487.712V503H483.968V482.648H476.624V479.192ZM505.438 479.192H512.926V469.4H516.67V479.192H525.886V482.648H516.67V498.104C516.67 499.064 517.102 499.544 517.966 499.544H524.734V503H516.622C515.534 503 514.638 502.648 513.934 501.944C513.262 501.24 512.926 500.344 512.926 499.256V482.648H505.438V479.192ZM556.237 503H549.325L546.445 480.92H545.869L542.989 503H536.077L532.333 479.192H536.173L539.341 501.272H539.917L542.701 479.192H549.613L552.397 501.272H552.973L556.141 479.192H559.981L556.237 503ZM582.315 498.968H581.739C580.971 500.568 579.899 501.752 578.523 502.52C577.179 503.288 575.755 503.672 574.251 503.672C572.683 503.672 571.227 503.416 569.883 502.904C568.539 502.36 567.355 501.576 566.331 500.552C565.339 499.496 564.555 498.216 563.979 496.712C563.403 495.208 563.115 493.464 563.115 491.48V490.712C563.115 488.76 563.403 487.032 563.979 485.528C564.555 484.024 565.339 482.76 566.331 481.736C567.355 480.68 568.539 479.88 569.883 479.336C571.227 478.792 572.651 478.52 574.155 478.52C575.787 478.52 577.259 478.888 578.571 479.624C579.915 480.328 580.971 481.432 581.739 482.936H582.315V479.192H586.059V498.104C586.059 499.064 586.491 499.544 587.355 499.544H588.555V503H586.011C584.923 503 584.027 502.648 583.323 501.944C582.651 501.24 582.315 500.344 582.315 499.256V498.968ZM574.635 500.12C575.755 500.12 576.779 499.912 577.707 499.496C578.667 499.08 579.483 498.488 580.155 497.72C580.827 496.952 581.355 496.04 581.739 494.984C582.123 493.896 582.315 492.696 582.315 491.384V490.808C582.315 489.528 582.123 488.36 581.739 487.304C581.355 486.216 580.811 485.288 580.107 484.52C579.435 483.752 578.619 483.16 577.659 482.744C576.731 482.296 575.723 482.072 574.635 482.072C573.515 482.072 572.491 482.28 571.563 482.696C570.635 483.112 569.819 483.704 569.115 484.472C568.443 485.208 567.915 486.12 567.531 487.208C567.147 488.264 566.955 489.432 566.955 490.712V491.48C566.955 494.2 567.659 496.328 569.067 497.864C570.507 499.368 572.363 500.12 574.635 500.12ZM593.082 479.192H601.722V482.36H602.298C602.906 481.048 603.77 480.088 604.89 479.48C606.01 478.84 607.29 478.52 608.73 478.52C611.13 478.52 613.066 479.304 614.538 480.872C616.01 482.44 616.794 484.728 616.89 487.736L612.954 488.312C612.954 486.104 612.426 484.52 611.37 483.56C610.314 482.568 609.018 482.072 607.482 482.072C606.49 482.072 605.626 482.264 604.89 482.648C604.186 483.032 603.594 483.56 603.114 484.232C602.634 484.904 602.282 485.688 602.058 486.584C601.834 487.48 601.722 488.44 601.722 489.464V499.544H607.77V503H592.506V499.544H597.978V482.648H593.082V479.192ZM626.553 492.248C626.649 494.616 627.385 496.52 628.761 497.96C630.137 499.4 632.057 500.12 634.521 500.12C635.641 500.12 636.617 499.992 637.449 499.736C638.281 499.48 638.985 499.128 639.561 498.68C640.169 498.232 640.649 497.72 641.001 497.144C641.385 496.536 641.689 495.896 641.913 495.224L645.465 496.184C644.793 498.392 643.545 500.2 641.721 501.608C639.929 502.984 637.497 503.672 634.425 503.672C632.729 503.672 631.161 503.384 629.721 502.808C628.313 502.2 627.097 501.352 626.073 500.264C625.049 499.176 624.249 497.88 623.673 496.376C623.097 494.872 622.809 493.208 622.809 491.384V490.232C622.809 488.568 623.097 487.016 623.673 485.576C624.281 484.136 625.113 482.904 626.169 481.88C627.225 480.824 628.457 480.008 629.865 479.432C631.305 478.824 632.857 478.52 634.521 478.52C636.473 478.52 638.153 478.888 639.561 479.624C641.001 480.328 642.169 481.208 643.065 482.264C643.993 483.32 644.665 484.472 645.081 485.72C645.529 486.968 645.753 488.12 645.753 489.176V492.248H626.553ZM634.521 482.072C633.465 482.072 632.473 482.248 631.545 482.6C630.649 482.92 629.849 483.384 629.145 483.992C628.473 484.6 627.913 485.32 627.465 486.152C627.049 486.952 626.777 487.832 626.649 488.792H642.009C641.945 487.768 641.689 486.84 641.241 486.008C640.825 485.176 640.265 484.472 639.561 483.896C638.889 483.32 638.105 482.872 637.209 482.552C636.345 482.232 635.449 482.072 634.521 482.072Z" fill="white" fill-opacity="0.7"/>
<path d="M210.878 432.281H185.37V405.355C185.467 403.28 184.813 401.239 183.528 399.606C182.745 398.807 181.793 398.192 180.742 397.807C179.692 397.422 178.569 397.276 177.454 397.379H145.508V432.281H120V329.033H181.099C185.862 328.941 190.604 329.688 195.108 331.24C198.866 332.541 202.313 334.61 205.23 337.313C207.895 339.887 210.004 342.981 211.425 346.403C212.855 349.911 213.578 353.668 213.551 357.456V365.048C213.563 369.242 212.391 373.354 210.17 376.912C207.679 380.786 204.01 383.76 199.703 385.394V388.046C202.844 388.25 205.778 389.68 207.873 392.028C209.967 394.377 211.054 397.455 210.899 400.598L210.878 432.281ZM145.508 374.705H173.567C177.447 374.99 181.292 373.805 184.338 371.385C185.598 370.19 186.581 368.733 187.218 367.117C187.854 365.501 188.129 363.765 188.022 362.032V362.032C188.043 360.372 187.727 358.725 187.094 357.191C186.461 355.656 185.523 354.266 184.338 353.104C182.895 351.774 181.194 350.754 179.342 350.107C177.49 349.459 175.525 349.198 173.567 349.338H145.508V374.705Z" fill="white"/>
<path d="M292.1 331.867H317.609V432.281H292.1V417.705H288.456C284.002 429.312 274.42 435.115 259.709 435.115C254.944 435.156 250.211 434.333 245.74 432.686C241.439 431.086 237.561 428.524 234.403 425.195C230.994 421.571 228.405 417.256 226.811 412.542C224.869 406.773 223.938 400.712 224.058 394.626V331.867H249.586V389.362C249.586 396.502 251.273 402.069 254.648 406.064C258.022 410.059 263.083 412.05 269.831 412.036C277.524 412.036 283.159 409.573 286.735 404.647C290.312 399.721 292.1 392.972 292.1 384.402V331.867ZM256.875 332.677H284.913L281.269 360.21H260.498L256.875 332.677Z" fill="white"/>
<path d="M400.815 417.705C398.692 423.36 394.689 428.114 389.477 431.167C384.231 433.892 378.382 435.25 372.472 435.115C366.594 435.152 360.771 433.981 355.365 431.674C349.996 429.36 345.195 425.906 341.295 421.551C337.077 416.822 333.812 411.323 331.679 405.355C329.211 398.405 328.011 391.068 328.136 383.694V380.454C328.021 373.155 329.185 365.892 331.578 358.995C333.63 353.056 336.79 347.56 340.89 342.799C344.66 338.451 349.32 334.965 354.555 332.576C359.8 330.197 365.499 328.988 371.257 329.033C377.241 328.775 383.194 330.028 388.566 332.677C393.12 335.3 396.76 339.257 398.992 344.014H402.637V331.867H428.145V401.914C428.145 411.969 428.145 416.085 428.145 432.281H420.047C415.917 432.448 411.885 430.995 408.811 428.232C407.371 426.894 406.237 425.26 405.486 423.443C404.734 421.627 404.384 419.669 404.459 417.705H400.815ZM378.14 410.821C381.469 410.96 384.787 410.37 387.864 409.094C390.941 407.818 393.703 405.886 395.956 403.432C400.41 398.506 402.637 391.791 402.637 383.289V380.778C402.637 372.276 400.41 365.527 395.956 360.534C393.618 358.19 390.841 356.331 387.784 355.063C384.727 353.794 381.45 353.142 378.14 353.142C374.831 353.142 371.553 353.794 368.496 355.063C365.439 356.331 362.663 358.19 360.325 360.534C355.871 365.46 353.644 372.208 353.644 380.778V383.208C353.644 391.71 355.871 398.425 360.325 403.351C362.569 405.821 365.327 407.77 368.405 409.061C371.483 410.352 374.806 410.952 378.14 410.821Z" fill="white"/>
<path d="M124.032 469.4H145.344V473.144H136.704V499.256H145.344V503H124.032V499.256H132.672V473.144H124.032V469.4ZM157.311 503H153.567V479.192H157.311V483.224H157.887C159.359 480.088 161.919 478.52 165.567 478.52C168.319 478.52 170.511 479.384 172.143 481.112C173.775 482.808 174.591 485.368 174.591 488.792V503H170.847V489.56C170.847 487.064 170.287 485.192 169.167 483.944C168.047 482.696 166.527 482.072 164.607 482.072C162.335 482.072 160.543 482.856 159.231 484.424C157.951 485.96 157.311 488.024 157.311 490.616V503ZM201.053 499.352H200.477C199.709 500.792 198.653 501.88 197.309 502.616C195.997 503.32 194.557 503.672 192.989 503.672C191.389 503.672 189.885 503.4 188.477 502.856C187.069 502.312 185.821 501.528 184.733 500.504C183.677 499.48 182.829 498.216 182.189 496.712C181.581 495.176 181.277 493.432 181.277 491.48V490.712C181.277 488.792 181.597 487.08 182.237 485.576C182.877 484.04 183.725 482.76 184.781 481.736C185.837 480.68 187.069 479.88 188.477 479.336C189.885 478.792 191.357 478.52 192.893 478.52C194.621 478.52 196.125 478.904 197.405 479.672C198.717 480.408 199.741 481.496 200.477 482.936H201.053V479.192H204.797V508.856C204.797 509.944 204.445 510.84 203.741 511.544C203.069 512.248 202.189 512.6 201.101 512.6H185.597V509.144H199.757C200.621 509.144 201.053 508.664 201.053 507.704V499.352ZM193.085 500.12C194.205 500.12 195.245 499.912 196.205 499.496C197.165 499.08 197.997 498.488 198.701 497.72C199.437 496.952 200.013 496.04 200.429 494.984C200.845 493.896 201.053 492.696 201.053 491.384V490.808C201.053 489.528 200.845 488.36 200.429 487.304C200.013 486.216 199.437 485.288 198.701 484.52C197.997 483.752 197.149 483.16 196.157 482.744C195.197 482.296 194.173 482.072 193.085 482.072C191.965 482.072 190.909 482.28 189.917 482.696C188.957 483.112 188.109 483.704 187.373 484.472C186.669 485.24 186.109 486.152 185.693 487.208C185.309 488.264 185.117 489.432 185.117 490.712V491.48C185.117 492.824 185.309 494.024 185.693 495.08C186.109 496.136 186.669 497.048 187.373 497.816C188.109 498.552 188.957 499.128 189.917 499.544C190.877 499.928 191.933 500.12 193.085 500.12ZM215.084 492.248C215.18 494.616 215.916 496.52 217.292 497.96C218.668 499.4 220.588 500.12 223.052 500.12C224.172 500.12 225.148 499.992 225.98 499.736C226.812 499.48 227.516 499.128 228.092 498.68C228.7 498.232 229.18 497.72 229.532 497.144C229.916 496.536 230.22 495.896 230.444 495.224L233.996 496.184C233.324 498.392 232.076 500.2 230.252 501.608C228.46 502.984 226.028 503.672 222.956 503.672C221.26 503.672 219.692 503.384 218.252 502.808C216.844 502.2 215.628 501.352 214.604 500.264C213.58 499.176 212.78 497.88 212.204 496.376C211.628 494.872 211.34 493.208 211.34 491.384V490.232C211.34 488.568 211.628 487.016 212.204 485.576C212.812 484.136 213.644 482.904 214.7 481.88C215.756 480.824 216.988 480.008 218.396 479.432C219.836 478.824 221.388 478.52 223.052 478.52C225.004 478.52 226.684 478.888 228.092 479.624C229.532 480.328 230.7 481.208 231.596 482.264C232.524 483.32 233.196 484.472 233.612 485.72C234.06 486.968 234.284 488.12 234.284 489.176V492.248H215.084ZM223.052 482.072C221.996 482.072 221.004 482.248 220.076 482.6C219.18 482.92 218.38 483.384 217.676 483.992C217.004 484.6 216.444 485.32 215.996 486.152C215.58 486.952 215.308 487.832 215.18 488.792H230.54C230.476 487.768 230.22 486.84 229.772 486.008C229.356 485.176 228.796 484.472 228.092 483.896C227.42 483.32 226.636 482.872 225.74 482.552C224.876 482.232 223.98 482.072 223.052 482.072ZM245.483 503H241.739V479.192H245.483V483.224H246.059C247.531 480.088 250.091 478.52 253.739 478.52C256.491 478.52 258.683 479.384 260.315 481.112C261.947 482.808 262.763 485.368 262.763 488.792V503H259.019V489.56C259.019 487.064 258.459 485.192 257.339 483.944C256.219 482.696 254.699 482.072 252.779 482.072C250.507 482.072 248.715 482.856 247.403 484.424C246.123 485.96 245.483 488.024 245.483 490.616V503ZM278.521 472.088C278.521 471.16 278.841 470.376 279.481 469.736C280.153 469.064 280.953 468.728 281.881 468.728C282.809 468.728 283.593 469.064 284.233 469.736C284.905 470.376 285.241 471.16 285.241 472.088C285.241 473.016 284.905 473.816 284.233 474.488C283.593 475.128 282.809 475.448 281.881 475.448C280.953 475.448 280.153 475.128 279.481 474.488C278.841 473.816 278.521 473.016 278.521 472.088ZM271.705 499.544H280.057V482.648H272.569V479.192H283.801V499.544H291.577V503H271.705V499.544ZM303.256 492.248C303.352 494.616 304.088 496.52 305.464 497.96C306.84 499.4 308.76 500.12 311.224 500.12C312.344 500.12 313.32 499.992 314.152 499.736C314.984 499.48 315.688 499.128 316.264 498.68C316.872 498.232 317.352 497.72 317.704 497.144C318.088 496.536 318.392 495.896 318.616 495.224L322.168 496.184C321.496 498.392 320.248 500.2 318.424 501.608C316.632 502.984 314.2 503.672 311.128 503.672C309.432 503.672 307.864 503.384 306.424 502.808C305.016 502.2 303.8 501.352 302.776 500.264C301.752 499.176 300.952 497.88 300.376 496.376C299.8 494.872 299.512 493.208 299.512 491.384V490.232C299.512 488.568 299.8 487.016 300.376 485.576C300.984 484.136 301.816 482.904 302.872 481.88C303.928 480.824 305.16 480.008 306.568 479.432C308.008 478.824 309.56 478.52 311.224 478.52C313.176 478.52 314.856 478.888 316.264 479.624C317.704 480.328 318.872 481.208 319.768 482.264C320.696 483.32 321.368 484.472 321.784 485.72C322.232 486.968 322.456 488.12 322.456 489.176V492.248H303.256ZM311.224 482.072C310.168 482.072 309.176 482.248 308.248 482.6C307.352 482.92 306.552 483.384 305.848 483.992C305.176 484.6 304.616 485.32 304.168 486.152C303.752 486.952 303.48 487.832 303.352 488.792H318.712C318.648 487.768 318.392 486.84 317.944 486.008C317.528 485.176 316.968 484.472 316.264 483.896C315.592 483.32 314.808 482.872 313.912 482.552C313.048 482.232 312.152 482.072 311.224 482.072ZM328.566 479.192H337.206V482.36H337.782C338.39 481.048 339.254 480.088 340.374 479.48C341.494 478.84 342.774 478.52 344.214 478.52C346.614 478.52 348.55 479.304 350.022 480.872C351.494 482.44 352.278 484.728 352.374 487.736L348.438 488.312C348.438 486.104 347.91 484.52 346.854 483.56C345.798 482.568 344.502 482.072 342.966 482.072C341.974 482.072 341.11 482.264 340.374 482.648C339.67 483.032 339.078 483.56 338.598 484.232C338.118 484.904 337.766 485.688 337.542 486.584C337.318 487.48 337.206 488.44 337.206 489.464V499.544H343.254V503H327.99V499.544H333.462V482.648H328.566V479.192ZM381.765 491.384C381.765 493.368 381.429 495.128 380.757 496.664C380.117 498.168 379.253 499.448 378.165 500.504C377.077 501.528 375.797 502.312 374.325 502.856C372.885 503.4 371.381 503.672 369.813 503.672C368.213 503.672 366.693 503.4 365.253 502.856C363.813 502.312 362.549 501.528 361.461 500.504C360.373 499.448 359.493 498.168 358.821 496.664C358.181 495.128 357.861 493.368 357.861 491.384V490.808C357.861 488.856 358.181 487.128 358.821 485.624C359.493 484.088 360.373 482.792 361.461 481.736C362.581 480.68 363.861 479.88 365.301 479.336C366.741 478.792 368.245 478.52 369.813 478.52C371.381 478.52 372.885 478.792 374.325 479.336C375.765 479.88 377.029 480.68 378.117 481.736C379.237 482.792 380.117 484.088 380.757 485.624C381.429 487.128 381.765 488.856 381.765 490.808V491.384ZM369.813 500.12C370.965 500.12 372.021 499.928 372.981 499.544C373.973 499.128 374.837 498.536 375.573 497.768C376.309 497 376.885 496.088 377.301 495.032C377.717 493.944 377.925 492.728 377.925 491.384V490.808C377.925 489.528 377.717 488.36 377.301 487.304C376.885 486.216 376.309 485.288 375.573 484.52C374.837 483.752 373.973 483.16 372.981 482.744C371.989 482.296 370.933 482.072 369.813 482.072C368.693 482.072 367.637 482.296 366.645 482.744C365.653 483.16 364.789 483.752 364.053 484.52C363.317 485.288 362.741 486.216 362.325 487.304C361.909 488.36 361.701 489.528 361.701 490.808V491.384C361.701 492.728 361.909 493.944 362.325 495.032C362.741 496.088 363.317 497 364.053 497.768C364.789 498.536 365.637 499.128 366.597 499.544C367.589 499.928 368.661 500.12 369.813 500.12ZM436.514 479.096C436.514 478.008 436.29 477.048 435.842 476.216C435.426 475.384 434.85 474.696 434.114 474.152C433.378 473.608 432.53 473.192 431.57 472.904C430.61 472.616 429.602 472.472 428.546 472.472C427.618 472.472 426.738 472.6 425.906 472.856C425.074 473.08 424.322 473.416 423.65 473.864C423.01 474.312 422.498 474.872 422.114 475.544C421.73 476.184 421.538 476.936 421.538 477.8V478.088C421.538 479.016 421.73 479.816 422.114 480.488C422.498 481.128 423.058 481.688 423.794 482.168C424.562 482.616 425.506 483 426.626 483.32C427.746 483.608 429.058 483.864 430.562 484.088C434.082 484.632 436.674 485.672 438.338 487.208C440.002 488.712 440.834 490.744 440.834 493.304V493.88C440.834 495.32 440.578 496.648 440.066 497.864C439.586 499.048 438.85 500.072 437.858 500.936C436.898 501.8 435.698 502.472 434.258 502.952C432.818 503.432 431.154 503.672 429.266 503.672C427.122 503.672 425.218 503.368 423.554 502.76C421.922 502.12 420.546 501.256 419.426 500.168C418.338 499.048 417.506 497.752 416.93 496.28C416.354 494.776 416.066 493.144 416.066 491.384V489.944H420.098V491.096C420.098 494.04 420.898 496.248 422.498 497.72C424.13 499.192 426.386 499.928 429.266 499.928C431.762 499.928 433.634 499.384 434.882 498.296C436.162 497.176 436.802 495.704 436.802 493.88V493.592C436.802 491.832 436.146 490.488 434.834 489.56C433.554 488.632 431.458 487.96 428.546 487.544C426.85 487.32 425.314 486.984 423.938 486.536C422.594 486.056 421.442 485.448 420.482 484.712C419.522 483.944 418.786 483.032 418.274 481.976C417.762 480.92 417.506 479.672 417.506 478.232V477.656C417.506 476.344 417.778 475.144 418.322 474.056C418.866 472.968 419.618 472.024 420.578 471.224C421.57 470.424 422.738 469.816 424.082 469.4C425.458 468.952 426.962 468.728 428.594 468.728C430.482 468.728 432.162 469 433.634 469.544C435.138 470.088 436.402 470.824 437.426 471.752C438.45 472.648 439.218 473.72 439.73 474.968C440.274 476.184 440.546 477.464 440.546 478.808V480.824H436.514V479.096ZM469.937 491.384C469.937 493.368 469.601 495.128 468.929 496.664C468.289 498.168 467.425 499.448 466.337 500.504C465.249 501.528 463.969 502.312 462.497 502.856C461.057 503.4 459.553 503.672 457.985 503.672C456.385 503.672 454.865 503.4 453.425 502.856C451.985 502.312 450.721 501.528 449.633 500.504C448.545 499.448 447.665 498.168 446.993 496.664C446.353 495.128 446.033 493.368 446.033 491.384V490.808C446.033 488.856 446.353 487.128 446.993 485.624C447.665 484.088 448.545 482.792 449.633 481.736C450.753 480.68 452.033 479.88 453.473 479.336C454.913 478.792 456.417 478.52 457.985 478.52C459.553 478.52 461.057 478.792 462.497 479.336C463.937 479.88 465.201 480.68 466.289 481.736C467.409 482.792 468.289 484.088 468.929 485.624C469.601 487.128 469.937 488.856 469.937 490.808V491.384ZM457.985 500.12C459.137 500.12 460.193 499.928 461.153 499.544C462.145 499.128 463.009 498.536 463.745 497.768C464.481 497 465.057 496.088 465.473 495.032C465.889 493.944 466.097 492.728 466.097 491.384V490.808C466.097 489.528 465.889 488.36 465.473 487.304C465.057 486.216 464.481 485.288 463.745 484.52C463.009 483.752 462.145 483.16 461.153 482.744C460.161 482.296 459.105 482.072 457.985 482.072C456.865 482.072 455.809 482.296 454.817 482.744C453.825 483.16 452.961 483.752 452.225 484.52C451.489 485.288 450.913 486.216 450.497 487.304C450.081 488.36 449.873 489.528 449.873 490.808V491.384C449.873 492.728 450.081 493.944 450.497 495.032C450.913 496.088 451.489 497 452.225 497.768C452.961 498.536 453.809 499.128 454.769 499.544C455.761 499.928 456.833 500.12 457.985 500.12ZM476.624 479.192H483.968V473.144C483.968 472.056 484.304 471.16 484.976 470.456C485.68 469.752 486.576 469.4 487.664 469.4H497.072V472.856H489.008C488.144 472.856 487.712 473.336 487.712 474.296V479.192H497.648V482.648H487.712V503H483.968V482.648H476.624V479.192ZM505.438 479.192H512.926V469.4H516.67V479.192H525.886V482.648H516.67V498.104C516.67 499.064 517.102 499.544 517.966 499.544H524.734V503H516.622C515.534 503 514.638 502.648 513.934 501.944C513.262 501.24 512.926 500.344 512.926 499.256V482.648H505.438V479.192ZM556.237 503H549.325L546.445 480.92H545.869L542.989 503H536.077L532.333 479.192H536.173L539.341 501.272H539.917L542.701 479.192H549.613L552.397 501.272H552.973L556.141 479.192H559.981L556.237 503ZM582.315 498.968H581.739C580.971 500.568 579.899 501.752 578.523 502.52C577.179 503.288 575.755 503.672 574.251 503.672C572.683 503.672 571.227 503.416 569.883 502.904C568.539 502.36 567.355 501.576 566.331 500.552C565.339 499.496 564.555 498.216 563.979 496.712C563.403 495.208 563.115 493.464 563.115 491.48V490.712C563.115 488.76 563.403 487.032 563.979 485.528C564.555 484.024 565.339 482.76 566.331 481.736C567.355 480.68 568.539 479.88 569.883 479.336C571.227 478.792 572.651 478.52 574.155 478.52C575.787 478.52 577.259 478.888 578.571 479.624C579.915 480.328 580.971 481.432 581.739 482.936H582.315V479.192H586.059V498.104C586.059 499.064 586.491 499.544 587.355 499.544H588.555V503H586.011C584.923 503 584.027 502.648 583.323 501.944C582.651 501.24 582.315 500.344 582.315 499.256V498.968ZM574.635 500.12C575.755 500.12 576.779 499.912 577.707 499.496C578.667 499.08 579.483 498.488 580.155 497.72C580.827 496.952 581.355 496.04 581.739 494.984C582.123 493.896 582.315 492.696 582.315 491.384V490.808C582.315 489.528 582.123 488.36 581.739 487.304C581.355 486.216 580.811 485.288 580.107 484.52C579.435 483.752 578.619 483.16 577.659 482.744C576.731 482.296 575.723 482.072 574.635 482.072C573.515 482.072 572.491 482.28 571.563 482.696C570.635 483.112 569.819 483.704 569.115 484.472C568.443 485.208 567.915 486.12 567.531 487.208C567.147 488.264 566.955 489.432 566.955 490.712V491.48C566.955 494.2 567.659 496.328 569.067 497.864C570.507 499.368 572.363 500.12 574.635 500.12ZM593.082 479.192H601.722V482.36H602.298C602.906 481.048 603.77 480.088 604.89 479.48C606.01 478.84 607.29 478.52 608.73 478.52C611.13 478.52 613.066 479.304 614.538 480.872C616.01 482.44 616.794 484.728 616.89 487.736L612.954 488.312C612.954 486.104 612.426 484.52 611.37 483.56C610.314 482.568 609.018 482.072 607.482 482.072C606.49 482.072 605.626 482.264 604.89 482.648C604.186 483.032 603.594 483.56 603.114 484.232C602.634 484.904 602.282 485.688 602.058 486.584C601.834 487.48 601.722 488.44 601.722 489.464V499.544H607.77V503H592.506V499.544H597.978V482.648H593.082V479.192ZM626.553 492.248C626.649 494.616 627.385 496.52 628.761 497.96C630.137 499.4 632.057 500.12 634.521 500.12C635.641 500.12 636.617 499.992 637.449 499.736C638.281 499.48 638.985 499.128 639.561 498.68C640.169 498.232 640.649 497.72 641.001 497.144C641.385 496.536 641.689 495.896 641.913 495.224L645.465 496.184C644.793 498.392 643.545 500.2 641.721 501.608C639.929 502.984 637.497 503.672 634.425 503.672C632.729 503.672 631.161 503.384 629.721 502.808C628.313 502.2 627.097 501.352 626.073 500.264C625.049 499.176 624.249 497.88 623.673 496.376C623.097 494.872 622.809 493.208 622.809 491.384V490.232C622.809 488.568 623.097 487.016 623.673 485.576C624.281 484.136 625.113 482.904 626.169 481.88C627.225 480.824 628.457 480.008 629.865 479.432C631.305 478.824 632.857 478.52 634.521 478.52C636.473 478.52 638.153 478.888 639.561 479.624C641.001 480.328 642.169 481.208 643.065 482.264C643.993 483.32 644.665 484.472 645.081 485.72C645.529 486.968 645.753 488.12 645.753 489.176V492.248H626.553ZM634.521 482.072C633.465 482.072 632.473 482.248 631.545 482.6C630.649 482.92 629.849 483.384 629.145 483.992C628.473 484.6 627.913 485.32 627.465 486.152C627.049 486.952 626.777 487.832 626.649 488.792H642.009C641.945 487.768 641.689 486.84 641.241 486.008C640.825 485.176 640.265 484.472 639.561 483.896C638.889 483.32 638.105 482.872 637.209 482.552C636.345 482.232 635.449 482.072 634.521 482.072Z" fill="white" fill-opacity="0.7"/>
<path d="M210.878 432.281H185.37V405.355C185.467 403.28 184.813 401.239 183.528 399.606C182.745 398.807 181.793 398.192 180.742 397.807C179.692 397.422 178.569 397.276 177.454 397.379H145.508V432.281H120V329.033H181.099C185.862 328.941 190.604 329.688 195.108 331.24C198.866 332.541 202.313 334.61 205.23 337.313C207.895 339.887 210.004 342.981 211.425 346.403C212.855 349.911 213.578 353.668 213.551 357.456V365.048C213.563 369.242 212.391 373.354 210.17 376.912C207.679 380.786 204.01 383.76 199.703 385.394V388.046C202.844 388.25 205.778 389.68 207.873 392.028C209.967 394.377 211.054 397.455 210.899 400.598L210.878 432.281ZM145.508 374.705H173.567C177.447 374.99 181.292 373.805 184.338 371.385C185.598 370.19 186.581 368.733 187.218 367.117C187.854 365.501 188.129 363.765 188.022 362.032V362.032C188.043 360.372 187.727 358.725 187.094 357.191C186.461 355.656 185.523 354.266 184.338 353.104C182.895 351.774 181.194 350.754 179.342 350.107C177.49 349.459 175.525 349.198 173.567 349.338H145.508V374.705Z" fill="white"/>
<path d="M292.1 331.867H317.609V432.281H292.1V417.705H288.456C284.002 429.312 274.42 435.115 259.709 435.115C254.944 435.156 250.211 434.333 245.74 432.686C241.439 431.086 237.561 428.524 234.403 425.195C230.994 421.571 228.405 417.256 226.811 412.542C224.869 406.773 223.938 400.712 224.058 394.626V331.867H249.586V389.362C249.586 396.502 251.273 402.069 254.648 406.064C258.022 410.059 263.083 412.05 269.831 412.036C277.524 412.036 283.159 409.573 286.735 404.647C290.312 399.721 292.1 392.972 292.1 384.402V331.867ZM256.875 332.677H284.913L281.269 360.21H260.498L256.875 332.677Z" fill="white"/>
<path d="M400.815 417.705C398.692 423.36 394.689 428.114 389.477 431.167C384.231 433.892 378.382 435.25 372.472 435.115C366.594 435.152 360.771 433.981 355.365 431.674C349.996 429.36 345.195 425.906 341.295 421.551C337.077 416.822 333.812 411.323 331.679 405.355C329.211 398.405 328.011 391.068 328.136 383.694V380.454C328.021 373.155 329.185 365.892 331.578 358.995C333.63 353.056 336.79 347.56 340.89 342.799C344.66 338.451 349.32 334.965 354.555 332.576C359.8 330.197 365.499 328.988 371.257 329.033C377.241 328.775 383.194 330.028 388.566 332.677C393.12 335.3 396.76 339.257 398.992 344.014H402.637V331.867H428.145V401.914C428.145 411.969 428.145 416.085 428.145 432.281H420.047C415.917 432.448 411.885 430.995 408.811 428.232C407.371 426.894 406.237 425.26 405.486 423.443C404.734 421.627 404.384 419.669 404.459 417.705H400.815ZM378.14 410.821C381.469 410.96 384.787 410.37 387.864 409.094C390.941 407.818 393.703 405.886 395.956 403.432C400.41 398.506 402.637 391.791 402.637 383.289V380.778C402.637 372.276 400.41 365.527 395.956 360.534C393.618 358.19 390.841 356.331 387.784 355.063C384.727 353.794 381.45 353.142 378.14 353.142C374.831 353.142 371.553 353.794 368.496 355.063C365.439 356.331 362.663 358.19 360.325 360.534C355.871 365.46 353.644 372.208 353.644 380.778V383.208C353.644 391.71 355.871 398.425 360.325 403.351C362.569 405.821 365.327 407.77 368.405 409.061C371.483 410.352 374.806 410.952 378.14 410.821Z" fill="white"/>
<circle cx="811.5" cy="606.5" r="7.5" fill="#E1E4EA"/>
<circle cx="811.5" cy="577.5" r="7.5" fill="#E1E4EA"/>
<circle cx="811.5" cy="548.5" r="7.5" fill="#FFBE33"/>
<circle cx="811.5" cy="519.5" r="7.5" fill="#E1E4EA"/>
<circle cx="840.5" cy="606.5" r="7.5" fill="#E1E4EA"/>
<circle cx="840.5" cy="577.5" r="7.5" fill="#E1E4EA"/>
<circle cx="840.5" cy="548.5" r="7.5" fill="#E1E4EA"/>
<circle cx="840.5" cy="519.5" r="7.5" fill="#E1E4EA"/>
<circle cx="869.5" cy="606.5" r="7.5" fill="#E1E4EA"/>
<circle cx="869.5" cy="577.5" r="7.5" fill="#E1E4EA"/>
<circle cx="869.5" cy="548.5" r="7.5" fill="#E1E4EA"/>
<circle cx="869.5" cy="519.5" r="7.5" fill="#FF4133"/>
<circle cx="898.5" cy="606.5" r="7.5" fill="#42B3C2"/>
<circle cx="898.5" cy="577.5" r="7.5" fill="#E1E4EA"/>
<circle cx="898.5" cy="548.5" r="7.5" fill="#E1E4EA"/>
<circle cx="898.5" cy="519.5" r="7.5" fill="#E1E4EA"/>
<circle cx="927.5" cy="606.5" r="7.5" fill="#E1E4EA"/>
<circle cx="927.5" cy="577.5" r="7.5" fill="#E1E4EA"/>
<circle cx="927.5" cy="548.5" r="7.5" fill="#E1E4EA"/>
<circle cx="927.5" cy="519.5" r="7.5" fill="#E1E4EA"/>
<circle cx="956.5" cy="606.5" r="7.5" fill="#E1E4EA"/>
<circle cx="956.5" cy="577.5" r="7.5" fill="#FF4133"/>
<circle cx="956.5" cy="548.5" r="7.5" fill="#E1E4EA"/>
<circle cx="956.5" cy="519.5" r="7.5" fill="#E1E4EA"/>
<circle cx="985.5" cy="606.5" r="7.5" fill="#E1E4EA"/>
<circle cx="985.5" cy="577.5" r="7.5" fill="#E1E4EA"/>
<circle cx="985.5" cy="548.5" r="7.5" fill="#42B3C2"/>
<circle cx="985.5" cy="519.5" r="7.5" fill="#E1E4EA"/>
<circle cx="1014.5" cy="606.5" r="7.5" fill="#E1E4EA"/>
<circle cx="1014.5" cy="577.5" r="7.5" fill="#E1E4EA"/>
<circle cx="1014.5" cy="548.5" r="7.5" fill="#E1E4EA"/>
<circle cx="1014.5" cy="519.5" r="7.5" fill="#E1E4EA"/>
<circle cx="1043.5" cy="606.5" r="7.5" fill="#E1E4EA"/>
<circle cx="1043.5" cy="577.5" r="7.5" fill="#FFBE33"/>
<circle cx="1043.5" cy="548.5" r="7.5" fill="#E1E4EA"/>
<circle cx="1043.5" cy="519.5" r="7.5" fill="#E1E4EA"/>
<circle cx="1072.5" cy="606.5" r="7.5" fill="#E1E4EA"/>
<circle cx="1072.5" cy="577.5" r="7.5" fill="#E1E4EA"/>
<circle cx="1072.5" cy="548.5" r="7.5" fill="#E1E4EA"/>
<circle cx="1072.5" cy="519.5" r="7.5" fill="#E1E4EA"/>
<path fill-rule="evenodd" clip-rule="evenodd" d="M165.301 36.3656C165.301 127.291 91.5918 201 0.666672 201C0.444345 201 0.22212 201 0 200.999V0H161.271C163.909 11.6989 165.301 23.8697 165.301 36.3656Z" fill="#828DA6" fill-opacity="0.5"/>
<line x1="224" y1="448" x2="318" y2="448" stroke="#42B3C2" stroke-width="6"/>
<line x1="120" y1="448" x2="214" y2="448" stroke="#FFBE33" stroke-width="6"/>
<line x1="328" y1="448" x2="428" y2="448" stroke="#FF4133" stroke-width="6"/>
<path d="M320.981 44.0001L295 59.0001L312.858 82.1762L332.104 71.0643L320.981 44.0001Z" fill="#E1E4EA"/>
<path d="M931.847 161.107L903.284 170.283L915.846 196.707L937.004 189.909L931.847 161.107Z" fill="#E1E4EA" fill-opacity="0.6"/>
<path d="M66.6018 193.358L39.1973 181.151L30.9397 209.22L51.2407 218.262L66.6018 193.358Z" fill="#FFBE33"/>
<path d="M821 394.505L828.765 423.483L855.773 412.232L850.021 390.766L821 394.505Z" fill="#42B3C2"/>
<path d="M586.484 303.764L557.506 296L553.745 325.015L575.212 330.767L586.484 303.764Z" fill="#E1E4EA" fill-opacity="0.3"/>
<path d="M108.647 606.36L129.86 585.147L106.612 567.382L90.8974 583.097L108.647 606.36Z" fill="#E1E4EA" fill-opacity="0.1"/>
<path fill-rule="evenodd" clip-rule="evenodd" d="M1200 105.315V124.225L1189.51 134.719L1171.76 111.456L1187.47 95.7417L1200 105.315Z" fill="#FF4133"/>
<path fill-rule="evenodd" clip-rule="evenodd" d="M635.461 176.201L635.461 164.654L635.461 0H645.461L645.461 158.881L829.301 52.7407L737.951 0H757.951L839.301 46.9672L849.301 52.7407L839.301 58.5142L645.461 170.428L635.461 176.201Z" fill="#828DA6" fill-opacity="0.5"/>
<path fill-rule="evenodd" clip-rule="evenodd" d="M1200 189.601V406.399C1192.27 408.102 1184.24 409 1176 409C1114.7 409 1065 359.304 1065 298C1065 236.696 1114.7 187 1176 187C1184.24 187 1192.27 187.898 1200 189.601Z" fill="#828DA6" fill-opacity="0.3"/>
</svg>
